<?xml version="1.0" encoding="utf-8"?>
<!-- Generator: Adobe Illustrator 16.0.0, SVG Export Plug-In . SVG Version: 6.00 Build 0)  -->
<!DOCTYPE svg PUBLIC "-//W3C//DTD SVG 1.1//EN" "http://www.w3.org/Graphics/SVG/1.1/DTD/svg11.dtd">
<svg version="1.1" id="Layer_1" xmlns="http://www.w3.org/2000/svg" xmlns:xlink="http://www.w3.org/1999/xlink" x="0px" y="0px"
	 width="70.943px" height="73.043px" viewBox="0 0 70.943 73.043" enable-background="new 0 0 70.943 73.043" xml:space="preserve">
<path fill="#3F4040" d="M16.056,37.115H6.838c-0.632,0-1.145,0.514-1.145,1.145v23.896c0,0.632,0.513,1.145,1.145,1.145h9.219
	c0.631,0,1.144-0.513,1.144-1.145V38.262C17.2,37.629,16.687,37.115,16.056,37.115L16.056,37.115z M14.911,61.012H7.982V39.405h6.93
	L14.911,61.012z M31.756,28.449h-9.218c-0.632,0-1.145,0.512-1.145,1.144v32.563c0,0.632,0.513,1.145,1.145,1.145h9.218
	c0.632,0,1.145-0.513,1.145-1.145l0.001-32.563C32.901,28.961,32.387,28.449,31.756,28.449L31.756,28.449z M30.612,61.012h-6.93
	V30.738h6.93V61.012z M47.456,31.945h-9.219c-0.632,0-1.145,0.513-1.145,1.145v29.066c0,0.632,0.513,1.145,1.145,1.145h9.219
	c0.631,0,1.144-0.513,1.144-1.145V33.091C48.6,32.459,48.089,31.946,47.456,31.945L47.456,31.945z M46.31,61.012h-6.928V34.236
	h6.928V61.012z M63.156,21.606h-9.218c-0.633,0-1.145,0.512-1.145,1.145v39.405c0,0.632,0.512,1.145,1.145,1.145h9.218
	c0.632,0,1.145-0.513,1.145-1.145V22.751C64.301,22.118,63.788,21.605,63.156,21.606L63.156,21.606z M62.011,61.012h-6.93V23.896
	h6.93V61.012z M11.447,34.024c2.714,0,4.922-2.208,4.922-4.922c0-0.454-0.063-0.894-0.179-1.312l7.32-4.041
	c0.901,0.988,2.197,1.608,3.636,1.608c1.939,0,3.621-1.13,4.423-2.765l6.357,1.416c0.041,2.678,2.231,4.845,4.92,4.845
	c2.714,0,4.923-2.209,4.923-4.923c0-0.588-0.104-1.153-0.294-1.678l7.706-5.075c0.882,0.827,2.064,1.335,3.366,1.335
	c2.714,0,4.923-2.207,4.923-4.922S61.261,8.67,58.548,8.67s-4.923,2.207-4.923,4.922c0,0.589,0.104,1.153,0.295,1.677l-7.708,5.076
	c-0.88-0.827-2.063-1.335-3.365-1.335c-1.939,0-3.622,1.129-4.423,2.765l-6.357-1.416c-0.04-2.679-2.231-4.846-4.92-4.846
	c-2.714,0-4.923,2.209-4.923,4.923c0,0.454,0.063,0.894,0.179,1.311l-7.32,4.041c-0.9-0.987-2.196-1.607-3.635-1.607
	c-2.715,0-4.923,2.208-4.923,4.923C6.524,31.816,8.732,34.024,11.447,34.024L11.447,34.024z M58.546,10.96
	c1.451,0,2.634,1.182,2.634,2.633c0,1.452-1.183,2.633-2.634,2.633s-2.633-1.181-2.633-2.633
	C55.914,12.142,57.094,10.96,58.546,10.96z M42.846,21.3c1.451,0,2.632,1.182,2.632,2.633s-1.181,2.633-2.632,2.633
	c-1.452,0-2.633-1.182-2.633-2.633C40.214,22.48,41.394,21.3,42.846,21.3z M27.145,17.804c1.452,0,2.633,1.181,2.633,2.633
	c0,1.451-1.181,2.632-2.633,2.632c-1.451,0-2.633-1.181-2.633-2.632C24.512,18.984,25.694,17.804,27.145,17.804z M11.445,26.47
	c1.452,0,2.633,1.182,2.633,2.633s-1.181,2.633-2.633,2.633c-1.451,0-2.633-1.182-2.633-2.633C8.813,27.65,9.993,26.47,11.445,26.47
	z"/>
</svg>
