<?xml version="1.0" encoding="utf-8"?>
<!-- Generator: Adobe Illustrator 16.0.0, SVG Export Plug-In . SVG Version: 6.00 Build 0)  -->
<!DOCTYPE svg PUBLIC "-//W3C//DTD SVG 1.1//EN" "http://www.w3.org/Graphics/SVG/1.1/DTD/svg11.dtd">
<svg version="1.1" id="Layer_1" xmlns="http://www.w3.org/2000/svg" xmlns:xlink="http://www.w3.org/1999/xlink" x="0px" y="0px"
	 width="70.943px" height="73.043px" viewBox="0 0 70.943 73.043" enable-background="new 0 0 70.943 73.043" xml:space="preserve">
<path fill="#3F4040" d="M35.472,64.701c-15.539,0-28.18-12.641-28.18-28.181c0-15.538,12.642-28.18,28.18-28.18
	s28.181,12.642,28.181,28.18C63.653,52.061,51.01,64.701,35.472,64.701 M35.472,3.645c-18.157,0-32.877,14.719-32.877,32.876
	c0,18.159,14.72,32.878,32.877,32.878c18.158,0,32.876-14.719,32.876-32.878C68.348,18.363,53.63,3.645,35.472,3.645 M35.472,48.43
	c-0.549,0-1.075,0.219-1.463,0.609c-0.388,0.387-0.605,0.914-0.605,1.463c0,0.549,0.219,1.076,0.607,1.463
	c0.388,0.389,0.915,0.605,1.464,0.605c0.738,0,1.423-0.396,1.791-1.037c0.369-0.639,0.369-1.428,0-2.068
	C36.894,48.824,36.212,48.43,35.472,48.43 M37.731,21.492c-3.158-0.678-6.452,0.111-8.96,2.146
	c-2.486,2.014-3.929,5.043-3.924,8.242c0,0.839,0.448,1.615,1.175,2.034c0.726,0.419,1.622,0.419,2.348,0s1.174-1.195,1.174-2.034
	c0-1.791,0.798-3.469,2.192-4.602c1.414-1.149,3.198-1.57,5.038-1.189v0.002c1.102,0.238,2.109,0.788,2.902,1.584
	c0.797,0.796,1.346,1.804,1.586,2.904c0.703,3.377-1.375,6.019-3.793,6.885c-1.271,0.45-2.369,1.282-3.147,2.384
	c-0.777,1.097-1.196,2.41-1.199,3.758v0.688c0,0.838,0.447,1.613,1.173,2.034c0.727,0.418,1.623,0.418,2.349,0
	c0.728-0.421,1.175-1.196,1.175-2.034v-0.718c0-0.758,0.482-1.424,1.229-1.691c5.051-1.807,7.916-6.965,6.811-12.264
	C45.022,25.597,41.755,22.332,37.731,21.492"/>
</svg>
