<?xml version="1.0" encoding="utf-8"?>
<!-- Generator: Adobe Illustrator 16.0.0, SVG Export Plug-In . SVG Version: 6.00 Build 0)  -->
<!DOCTYPE svg PUBLIC "-//W3C//DTD SVG 1.1//EN" "http://www.w3.org/Graphics/SVG/1.1/DTD/svg11.dtd">
<svg version="1.1" id="Layer_1" xmlns="http://www.w3.org/2000/svg" xmlns:xlink="http://www.w3.org/1999/xlink" x="0px" y="0px"
	 width="151.507px" height="151.504px" viewBox="0 0 151.507 151.504" enable-background="new 0 0 151.507 151.504"
	 xml:space="preserve">
<g id="XMLID_1_">
	<g>
		<path fill="#3F3F3F" d="M142.501,8.923c1.133,1.133,1.511,2.644,0.755,3.966L91.991,141.191c-0.567,1.511-2.068,2.455-3.579,2.455
			s-3.021-0.944-3.579-2.455L64.097,87.228L10.188,66.474c-0.944-0.378-1.69-1.133-2.068-2.077
			c-0.755-1.889,0.189-4.154,2.068-4.901L138.355,8.167C139.866,7.601,141.377,7.791,142.501,8.923z M88.789,129.492l40.897-102.261
			l-57.865,57.92L88.789,129.492z M66.354,79.873l57.865-57.929L22.066,62.886L66.354,79.873z"/>
		<polygon fill="#FE5B35" points="129.687,27.231 88.789,129.492 71.821,85.151 		"/>
		<polygon fill="#FE5B35" points="124.219,21.944 66.354,79.873 22.066,62.886 		"/>
	</g>
	<g>
	</g>
</g>
<polygon fill="#FEB635" points="100.94,45.248 124.219,21.944 22.066,62.886 29.978,65.921 "/>
<polygon fill="#FEB635" points="118.139,56.106 129.688,27.231 71.82,85.151 72.553,87.061 "/>
</svg>
