<?xml version="1.0" encoding="utf-8"?>
<!-- Generator: Adobe Illustrator 16.0.0, SVG Export Plug-In . SVG Version: 6.00 Build 0)  -->
<!DOCTYPE svg PUBLIC "-//W3C//DTD SVG 1.1//EN" "http://www.w3.org/Graphics/SVG/1.1/DTD/svg11.dtd">
<svg version="1.1" id="Layer_1" xmlns="http://www.w3.org/2000/svg" xmlns:xlink="http://www.w3.org/1999/xlink" x="0px" y="0px"
	 width="70.943px" height="73.043px" viewBox="0 0 70.943 73.043" enable-background="new 0 0 70.943 73.043" xml:space="preserve">
<path fill="#3F4040" d="M10.164,45.957l-8.119-8.12c-0.56-0.559-0.56-1.468,0-2.028l8.119-8.119c0.561-0.561,1.469-0.561,2.03,0
	s0.561,1.47,0,2.029L5.09,36.823l7.104,7.104c0.561,0.563,0.561,1.47,0,2.03S10.724,46.518,10.164,45.957z"/>
<path fill="#3F4040" d="M60.778,27.688l8.119,8.119c0.561,0.561,0.561,1.469,0,2.029l-8.119,8.12c-0.561,0.561-1.469,0.561-2.029,0
	s-0.561-1.47,0-2.03l7.104-7.105l-7.104-7.103c-0.561-0.561-0.561-1.469,0-2.03C59.309,27.128,60.218,27.128,60.778,27.688z"/>
<path fill="#3F4040" d="M35.28,58.439c-3.148,0-5.933-3.172-7.693-8.731c-1.775,0.394-3.418,0.592-4.893,0.592
	c-3.241,0-5.523-0.966-6.599-2.794c-0.713-1.332-0.848-2.89-0.383-4.299c0.551-2.014,1.996-4.318,4.182-6.667
	c-2.209-2.388-3.654-4.695-4.193-6.701c-0.453-1.373-0.318-2.931,0.381-4.237c1.088-1.862,3.375-2.835,6.625-2.835
	c1.647,0.027,3.284,0.224,4.881,0.587c1.761-5.571,4.545-8.75,7.692-8.75s5.93,3.17,7.69,8.726c1.598-0.362,3.231-0.559,4.865-0.585
	c3.26,0,5.547,0.972,6.624,2.811c0.712,1.332,0.847,2.89,0.383,4.298c-0.55,2.01-1.994,4.315-4.181,6.667
	c2.208,2.388,3.652,4.695,4.191,6.702c0.455,1.372,0.32,2.934-0.381,4.243c-1.083,1.859-3.359,2.83-6.596,2.83
	c-1.479,0-3.128-0.203-4.909-0.602C41.212,55.262,38.43,58.439,35.28,58.439z M30.067,49.041c1.356,4.247,3.327,6.855,5.212,6.855
	c1.884,0,3.855-2.604,5.211-6.841c-1.772-0.542-3.521-1.203-5.212-1.97C33.588,47.847,31.839,48.502,30.067,49.041z M43.647,47.27
	c1.553,0.331,2.971,0.498,4.221,0.498c2.242,0,3.805-0.557,4.4-1.566c0.342-0.674,0.402-1.516,0.144-2.271
	c-0.444-1.654-1.667-3.565-3.56-5.588c-1.359,1.252-2.808,2.424-4.316,3.494C44.358,43.662,44.059,45.485,43.647,47.27z
	 M21.707,38.303c-1.89,2.036-3.112,3.944-3.549,5.547l-0.015,0.046c-0.269,0.767-0.208,1.619,0.164,2.34
	c0.735,1.257,2.749,1.527,4.305,1.527c1.439-0.028,2.885-0.203,4.299-0.521c-0.414-1.792-0.713-3.62-0.891-5.447
	C24.515,40.727,23.067,39.555,21.707,38.303z M28.835,43.684c0.15,0.98,0.338,1.957,0.561,2.92c0.952-0.29,1.899-0.617,2.832-0.979
	c-0.561-0.299-1.13-0.611-1.702-0.934C29.962,44.369,29.396,44.032,28.835,43.684z M38.341,45.618
	c0.928,0.362,1.871,0.69,2.82,0.983c0.223-0.961,0.409-1.936,0.561-2.918c-0.56,0.348-1.124,0.686-1.688,1.008
	C39.472,45.012,38.906,45.321,38.341,45.618z M28.449,40.402c1.057,0.72,2.176,1.423,3.333,2.093
	c1.073,0.621,2.217,1.215,3.488,1.812c1.105-0.512,2.278-1.12,3.491-1.813c1.171-0.671,2.264-1.356,3.33-2.089
	c0.109-1.298,0.166-2.602,0.166-3.88c0-1.307-0.053-2.61-0.154-3.879c-1.059-0.72-2.178-1.422-3.334-2.092
	c-1.017-0.59-2.104-1.152-3.493-1.807c-1.082,0.501-2.228,1.097-3.493,1.815c-1.096,0.622-2.215,1.322-3.333,2.083
	c-0.102,1.269-0.154,2.572-0.154,3.879C28.295,37.826,28.347,39.13,28.449,40.402z M44.76,34.596
	c0.023,0.643,0.036,1.287,0.038,1.926c0.003,0.648-0.009,1.292-0.031,1.925c0.771-0.613,1.521-1.256,2.246-1.923
	C46.288,35.856,45.536,35.211,44.76,34.596z M23.542,36.519c0.725,0.668,1.479,1.313,2.252,1.927
	c-0.022-0.632-0.035-1.273-0.037-1.919c-0.002-0.645,0.009-1.291,0.032-1.932C25.018,35.208,24.266,35.852,23.542,36.519z
	 M44.536,31.251c1.509,1.07,2.956,2.243,4.314,3.493c1.889-2.037,3.112-3.945,3.549-5.546c0.282-0.813,0.223-1.665-0.15-2.387
	c-0.568-0.972-2.102-1.525-4.298-1.525c-1.269,0-2.714,0.177-4.305,0.527C44.059,27.6,44.358,29.425,44.536,31.251z M18.287,26.845
	c-0.346,0.703-0.398,1.527-0.143,2.269c0.442,1.653,1.665,3.563,3.56,5.591c1.36-1.252,2.809-2.425,4.316-3.494
	c0.178-1.822,0.476-3.646,0.889-5.435c-1.553-0.33-2.97-0.498-4.221-0.498C20.446,25.279,18.883,25.835,18.287,26.845L18.287,26.845
	z M29.395,26.446c-0.223,0.962-0.41,1.939-0.56,2.92c0.57-0.354,1.134-0.691,1.688-1.008c0.57-0.326,1.142-0.631,1.707-0.925
	C31.299,27.07,30.351,26.741,29.395,26.446z M38.34,27.416c0.579,0.303,1.146,0.612,1.692,0.923
	c0.535,0.304,1.081,0.633,1.688,1.016c-0.15-0.98-0.337-1.953-0.559-2.911C40.212,26.732,39.268,27.057,38.34,27.416z
	 M30.067,23.992c1.772,0.543,3.522,1.204,5.213,1.969c1.685-0.758,3.434-1.413,5.21-1.953c-1.356-4.251-3.326-6.861-5.211-6.861
	C33.394,17.146,31.424,19.75,30.067,23.992z"/>
</svg>
