<?xml version="1.0" encoding="utf-8"?>
<!-- Generator: Adobe Illustrator 16.0.0, SVG Export Plug-In . SVG Version: 6.00 Build 0)  -->
<!DOCTYPE svg PUBLIC "-//W3C//DTD SVG 1.1//EN" "http://www.w3.org/Graphics/SVG/1.1/DTD/svg11.dtd">
<svg version="1.1" id="Layer_1" xmlns="http://www.w3.org/2000/svg" xmlns:xlink="http://www.w3.org/1999/xlink" x="0px" y="0px"
	 width="139.61px" height="130.485px" viewBox="0 0 139.61 130.485" enable-background="new 0 0 139.61 130.485"
	 xml:space="preserve">
<g>
	<g>
		<path fill="#FFFFFF" d="M82.548,14.335l8.099,12.021l-5.383,8.182c-2.662-3.973-7.271-10.861-12.555-18.748l-18.084,2.673
			l30.639,45.596l32.904-54.991L82.548,14.335z M44.498,19.96l-9.775,1.445l-15.568,2.271l14.074,9.167l22.377,34.053l9.545-15.966
			L44.498,19.96z M71.341,66.119c-3.757,0.272-6.802,3.526-6.802,7.266c0,3.74,3.045,6.548,6.802,6.276
			c3.757-0.274,6.802-3.526,6.802-7.266C78.143,68.655,75.098,65.845,71.341,66.119z"/>
	</g>
</g>
<g>
	<path fill="#FFFFFF" d="M9.703,92.28H13.4c0.382,0,0.701,0.09,0.957,0.27c0.256,0.18,0.428,0.423,0.515,0.728l4.024,14.15
		c0.098,0.349,0.188,0.728,0.27,1.137s0.161,0.843,0.237,1.301c0.087-0.458,0.183-0.892,0.286-1.301s0.215-0.788,0.335-1.137
		l4.646-14.15c0.088-0.251,0.259-0.48,0.516-0.687c0.256-0.208,0.57-0.311,0.941-0.311h1.292c0.381,0,0.697,0.09,0.949,0.27
		c0.25,0.18,0.425,0.423,0.523,0.728l4.613,14.15c0.239,0.698,0.447,1.472,0.622,2.323c0.076-0.425,0.155-0.835,0.237-1.228
		c0.082-0.393,0.166-0.758,0.253-1.096l4.024-14.15c0.076-0.272,0.246-0.507,0.507-0.704s0.578-0.294,0.949-0.294h3.452
		l-7.346,23.655h-3.975L27.06,99.772c-0.066-0.207-0.134-0.431-0.205-0.67c-0.071-0.24-0.139-0.497-0.204-0.769
		c-0.065,0.272-0.134,0.529-0.205,0.769c-0.071,0.24-0.139,0.463-0.205,0.67l-5.218,16.163h-3.976L9.703,92.28z"/>
	<path fill="#FFFFFF" d="M50.878,120.549c-0.12,0.283-0.275,0.499-0.466,0.646c-0.191,0.147-0.483,0.221-0.875,0.221h-3.01
		l3.141-6.724l-6.79-15.541h3.534c0.328,0,0.578,0.077,0.752,0.229c0.175,0.153,0.305,0.327,0.393,0.523l3.583,8.704
		c0.12,0.283,0.223,0.578,0.311,0.883c0.087,0.306,0.164,0.611,0.229,0.917c0.087-0.316,0.183-0.622,0.287-0.917
		c0.104-0.294,0.215-0.594,0.335-0.9l3.37-8.687c0.087-0.218,0.231-0.397,0.433-0.54c0.202-0.142,0.428-0.213,0.679-0.213h3.239
		L50.878,120.549z"/>
	<path fill="#FFFFFF" d="M74.549,115.936h-1.816c-0.382,0-0.681-0.058-0.899-0.172s-0.382-0.346-0.491-0.695l-0.36-1.194
		c-0.425,0.382-0.842,0.717-1.251,1.005c-0.409,0.29-0.832,0.532-1.268,0.729c-0.436,0.196-0.899,0.343-1.39,0.441
		c-0.491,0.098-1.037,0.147-1.636,0.147c-0.709,0-1.364-0.096-1.963-0.287c-0.6-0.192-1.115-0.479-1.546-0.862
		c-0.431-0.383-0.767-0.859-1.006-1.428c-0.24-0.569-0.36-1.231-0.36-1.986c0-0.635,0.166-1.261,0.499-1.88
		c0.333-0.618,0.886-1.175,1.66-1.674c0.774-0.498,1.805-0.911,3.092-1.239c1.287-0.329,2.885-0.493,4.793-0.493v-0.989
		c0-1.133-0.237-1.971-0.712-2.514c-0.474-0.544-1.164-0.816-2.069-0.816c-0.655,0-1.2,0.077-1.636,0.229
		c-0.437,0.153-0.815,0.325-1.137,0.515c-0.322,0.191-0.619,0.363-0.891,0.516c-0.273,0.153-0.573,0.229-0.9,0.229
		c-0.272,0-0.507-0.071-0.703-0.213c-0.196-0.142-0.354-0.316-0.474-0.523l-0.736-1.292c1.93-1.767,4.259-2.65,6.985-2.65
		c0.982,0,1.857,0.161,2.625,0.482c0.769,0.322,1.421,0.769,1.955,1.342c0.535,0.572,0.941,1.257,1.219,2.053
		c0.279,0.797,0.418,1.668,0.418,2.618V115.936z M66.697,113.416c0.414,0,0.796-0.038,1.146-0.112
		c0.349-0.076,0.679-0.188,0.989-0.338c0.311-0.15,0.611-0.335,0.9-0.556c0.289-0.22,0.581-0.481,0.875-0.781v-2.809
		c-1.178,0-2.163,0.074-2.953,0.222c-0.791,0.148-1.426,0.338-1.906,0.568c-0.48,0.231-0.821,0.5-1.022,0.808
		c-0.202,0.307-0.303,0.642-0.303,1.005c0,0.714,0.21,1.224,0.63,1.532S66.021,113.416,66.697,113.416z"/>
	<path fill="#FFFFFF" d="M83.056,116.197c-1.451,0-2.568-0.411-3.354-1.235c-0.785-0.823-1.178-1.959-1.178-3.41v-9.374h-1.701
		c-0.219,0-0.406-0.07-0.563-0.212c-0.159-0.142-0.237-0.354-0.237-0.638v-1.604l2.699-0.441l0.85-4.581
		c0.044-0.218,0.145-0.387,0.303-0.507c0.158-0.12,0.357-0.18,0.598-0.18h2.094v5.284h4.417v2.879h-4.417v9.096
		c0,0.524,0.131,0.933,0.393,1.227c0.262,0.294,0.611,0.442,1.047,0.442c0.251,0,0.461-0.03,0.63-0.09
		c0.169-0.061,0.316-0.123,0.442-0.188c0.125-0.065,0.236-0.128,0.335-0.188c0.099-0.06,0.196-0.09,0.294-0.09
		c0.121,0,0.218,0.03,0.295,0.09c0.076,0.06,0.158,0.15,0.246,0.27l1.209,1.963c-0.589,0.49-1.265,0.862-2.028,1.112
		C84.665,116.072,83.874,116.197,83.056,116.197z"/>
	<path fill="#FFFFFF" d="M94.737,116.197c-1.451,0-2.569-0.411-3.355-1.235c-0.785-0.823-1.176-1.959-1.176-3.41v-9.374h-1.703
		c-0.218,0-0.405-0.07-0.563-0.212c-0.159-0.142-0.237-0.354-0.237-0.638v-1.604l2.699-0.441l0.85-4.581
		c0.044-0.218,0.145-0.387,0.303-0.507c0.158-0.12,0.358-0.18,0.598-0.18h2.094v5.284h4.418v2.879h-4.418v9.096
		c0,0.524,0.132,0.933,0.393,1.227c0.263,0.294,0.611,0.442,1.049,0.442c0.25,0,0.459-0.03,0.629-0.09
		c0.17-0.061,0.315-0.123,0.441-0.188c0.125-0.065,0.237-0.128,0.335-0.188c0.099-0.06,0.196-0.09,0.294-0.09
		c0.121,0,0.219,0.03,0.295,0.09c0.077,0.06,0.158,0.15,0.246,0.27l1.21,1.963c-0.589,0.49-1.265,0.862-2.028,1.112
		C96.344,116.072,95.554,116.197,94.737,116.197z"/>
	<path fill="#FFFFFF" d="M124.934,115.936h-1.291c-0.153,0-0.279-0.042-0.377-0.123c-0.099-0.082-0.176-0.188-0.229-0.318
		l-2.732-6.724h-11.37l-2.716,6.724c-0.043,0.12-0.119,0.224-0.229,0.31c-0.109,0.087-0.24,0.131-0.393,0.131h-1.275l9.471-23.148
		h1.67L124.934,115.936z M109.443,107.527h10.37l-4.727-11.697c-0.076-0.186-0.152-0.395-0.229-0.63
		c-0.078-0.234-0.153-0.482-0.229-0.744c-0.077,0.262-0.152,0.51-0.229,0.744c-0.076,0.235-0.152,0.45-0.229,0.646L109.443,107.527z
		"/>
	<path fill="#FFFFFF" d="M129.907,115.936h-1.686V92.788h1.686V115.936z"/>
</g>
</svg>
